<?xml version="1.0" encoding="iso-8859-1"?>
<!-- Uploaded to: SVG Repo, www.svgrepo.com, Generator: SVG Repo Mixer Tools -->
<!DOCTYPE svg PUBLIC "-//W3C//DTD SVG 1.1//EN" "http://www.w3.org/Graphics/SVG/1.1/DTD/svg11.dtd">
<svg fill="#000000" height="800px" width="800px" version="1.1" id="Capa_1" xmlns="http://www.w3.org/2000/svg" xmlns:xlink="http://www.w3.org/1999/xlink" 
	 viewBox="0 0 460 460" xml:space="preserve">
<g id="XMLID_860_">
	<path id="XMLID_865_" d="M456.24,248.986H218.455c-2.076,0-3.76,1.683-3.76,3.76v34.432c0,2.076,1.683,3.76,3.76,3.76h36.83V424.54
		c0,5.708,4.628,10.335,10.335,10.335s10.335-4.627,10.335-10.335V290.937h122.784V424.54c0,5.708,4.628,10.335,10.335,10.335
		s10.335-4.627,10.335-10.335V290.937h36.831c2.077,0,3.76-1.683,3.76-3.76v-34.432C460,250.669,458.317,248.986,456.24,248.986z"/>
	<circle id="XMLID_1036_" cx="162.409" cy="66.472" r="41.337"/>
	<path id="XMLID_1037_" d="M192.374,283.471c-2.351-6.596-7.641-11.72-14.31-13.858l-23.479-7.526l4.246-14.82
		c-8.42-1.419-15.542-7.096-18.862-14.871l-29.274-68.844l44.617,56.79c3.863,4.919,9.938,7.596,16.212,7.099l38.595-3.071
		c-0.266,0.915-0.415,1.88-0.415,2.881c0,5.708,4.628,10.335,10.335,10.335c23.709,0,80.157,0,103.564,0
		c5.708,0,10.335-4.627,10.335-10.335s-4.628-10.335-10.335-10.335c-7.408,0-59.525,0-66.657,0c4.298-3.767,6.839-9.43,6.351-15.565
		c-0.821-10.31-9.825-18.013-20.155-17.184l-3.291,0.262c-11.32-25.672-8.018-18.184-12.293-27.879
		c-2.304-5.224-8.408-7.59-13.626-5.287c-5.223,2.303-7.59,8.404-5.288,13.626c1.449,3.286,5.77,13.086,9.381,21.276l-39.463,3.14
		l-38.413-48.893l40.699,30.262l1.28-4.726c4.248-14.826-4.328-30.288-19.153-34.535l-45.678-13.087
		c-7.485-2.145-15.526-1.066-22.182,2.974s-11.322,10.677-12.874,18.307l-27.54,135.47c-1.519,7.471,0.606,15.343,5.998,21.081
		H49.984L29.848,137.155c-1.04-8.209-8.538-14.023-16.746-12.981c-8.21,1.04-14.021,8.537-12.981,16.746l21.796,172.104
		c0.948,7.487,7.317,13.101,14.864,13.101h54.106v61.355l-35.592,29.054c-4.422,3.61-5.08,10.12-1.471,14.542
		c3.61,4.422,10.119,5.08,14.543,1.471l22.519-18.383v10.377c0,5.708,4.628,10.335,10.335,10.335s10.335-4.627,10.335-10.335
		v-10.377l22.518,18.383c1.92,1.566,4.232,2.329,6.53,2.329c2.997,0,5.969-1.297,8.012-3.8c3.61-4.422,2.952-10.932-1.47-14.542
		l-35.59-29.054v-61.355h48.302l33.431,93.815c3.278,9.199,11.934,14.936,21.17,14.936c2.504-0.001,5.05-0.422,7.544-1.311
		c11.692-4.166,17.792-17.022,13.625-28.714L192.374,283.471z"/>
</g>
</svg>